<?xml version="1.0" encoding="utf-8"?>
<!-- Generator: Adobe Illustrator 21.1.0, SVG Export Plug-In . SVG Version: 6.00 Build 0)  -->
<svg version="1.1" id="_x32_" xmlns="http://www.w3.org/2000/svg" xmlns:xlink="http://www.w3.org/1999/xlink" x="0px" y="0px"
	 viewBox="0 0 300 300" style="enable-background:new 0 0 300 300;" xml:space="preserve">
<style type="text/css">
	.st0{fill:#FFFFFF;stroke:#000000;stroke-miterlimit:10;}
	.st1{fill-rule:evenodd;clip-rule:evenodd;fill:#908FB2;}
</style>
<g>
	<ellipse class="st0" cx="150" cy="151.5" rx="23.5" ry="24"/>
	<g>
		<path class="st1" d="M149.7,160.2l-3-2.6l-8.5,7.2c0.3,0.3,0.7,0.5,1.2,0.5H160c0.5,0,0.9-0.2,1.2-0.5l-8.5-7.2L149.7,160.2z
			 M137.8,149.8V164l8.3-7L137.8,149.8z M161.7,148.3l-12-10.3l-12,10.3l12,10.3L161.7,148.3z M161.7,164v-14.2l-8.3,7.2L161.7,164z
			 M153.2,151.1L153.2,151.1h1c-0.3,0.6-0.8,1.1-1.5,1.5c-0.7,0.4-1.6,0.6-2.7,0.6c-1,0-1.9-0.2-2.7-0.5c-0.8-0.3-1.3-0.9-1.6-1.5
			c-0.4-0.7-0.5-1.4-0.5-2.2c0-0.9,0.2-1.7,0.6-2.5c0.4-0.7,1-1.3,1.7-1.7c0.7-0.4,1.5-0.5,2.5-0.5c0.8,0,1.5,0.2,2.1,0.5
			c0.6,0.3,1.1,0.7,1.4,1.3c0.3,0.5,0.5,1.2,0.5,1.8c0,0.8-0.3,1.5-0.7,2.2c-0.6,0.8-1.4,1.2-2.3,1.2c-0.3,0-0.5-0.1-0.6-0.2
			c-0.1-0.1-0.2-0.2-0.3-0.4c-0.4,0.3-0.8,0.5-1.3,0.5c-0.5,0-0.9-0.2-1.3-0.5c-0.3-0.4-0.5-0.9-0.5-1.5c0-0.7,0.2-1.4,0.6-2
			c0.5-0.7,1.1-1.1,1.9-1.1c0.5,0,1,0.2,1.2,0.6l0.1-0.5h1.2l-0.7,3.3c0,0.2,0,0.4,0,0.4c0,0.1,0,0.2,0,0.2c0,0,0.1,0,0.1,0
			c0.2,0,0.4-0.1,0.6-0.3c0.3-0.2,0.6-0.6,0.8-0.9c0.2-0.4,0.3-0.8,0.3-1.2c0-0.8-0.3-1.4-0.8-1.9c-0.5-0.5-1.3-0.8-2.3-0.8
			c-0.8,0-1.5,0.2-2.1,0.5c-0.6,0.3-1.1,0.8-1.3,1.4c-0.3,0.6-0.5,1.3-0.5,1.9s0.2,1.2,0.5,1.8c0.3,0.5,0.8,0.9,1.4,1.2
			c0.6,0.3,1.3,0.4,2,0.4c0.7,0,1.4-0.1,1.9-0.3C152.4,151.8,152.9,151.5,153.2,151.1L153.2,151.1z M148.2,149.1L148.2,149.1
			c0,0.4,0.1,0.7,0.2,0.9c0.2,0.2,0.4,0.3,0.6,0.3c0.2,0,0.4,0,0.5-0.2c0.1,0,0.2-0.2,0.4-0.3c0.2-0.2,0.3-0.5,0.4-0.8
			c0.1-0.4,0.2-0.7,0.2-1c0-0.4-0.1-0.6-0.3-0.8c-0.2-0.2-0.3-0.3-0.6-0.3c-0.3,0-0.5,0.1-0.7,0.3c-0.2,0.2-0.4,0.5-0.5,0.9
			C148.3,148.5,148.2,148.8,148.2,149.1L148.2,149.1z"/>
	</g>
</g>
</svg>
