<?xml version="1.0" encoding="utf-8"?>
<!-- Generator: Adobe Illustrator 21.1.0, SVG Export Plug-In . SVG Version: 6.00 Build 0)  -->
<svg version="1.1" id="_x32_" xmlns="http://www.w3.org/2000/svg" xmlns:xlink="http://www.w3.org/1999/xlink" x="0px" y="0px"
	 viewBox="0 0 300 300" style="enable-background:new 0 0 300 300;" xml:space="preserve">
<style type="text/css">
	.st0{fill:#FFFFFF;stroke:#000000;stroke-miterlimit:10;}
	.st1{fill-rule:evenodd;clip-rule:evenodd;fill:#908FB2;}
</style>
<g>
	<ellipse class="st0" cx="150" cy="144.4" rx="23.5" ry="24"/>
	<g>
		<path class="st1" d="M150.2,130.8c-7.5,0-13.7,6.1-13.7,13.7c0,7.6,6.1,13.7,13.7,13.7c7.6,0,13.7-6.1,13.7-13.7
			C163.9,136.9,157.7,130.8,150.2,130.8L150.2,130.8z M144.1,148.2c0.8,0,1.4,0.3,1.9,0.8c0.4,0.4,0.7,1,0.8,1.7h2.9V145h-6
			C143.7,146.1,143.8,147.2,144.1,148.2C144,148.2,144,148.2,144.1,148.2L144.1,148.2z M146.7,151.6c-0.1,0.5-0.4,0.9-0.7,1.3l0,0
			c-0.2,0.2-0.3,0.3-0.5,0.4c0.6,1.3,1.4,2.6,2.3,3.7c0.6,0.1,1.3,0.2,1.9,0.2v-5.6H146.7z M144.7,153.6c-0.2,0-0.4,0.1-0.6,0.1
			c-0.8,0-1.4-0.3-1.9-0.8c-0.3-0.3-0.6-0.8-0.7-1.3h-1.8c0.5,0.7,1,1.3,1.5,1.9c1.4,1.4,3.2,2.5,5.2,3.1
			C145.7,155.7,145.1,154.7,144.7,153.6L144.7,153.6z M141.3,150.7c0.1-0.6,0.4-1.2,0.8-1.6v0c0.3-0.2,0.6-0.5,0.9-0.6
			c-0.2-1.1-0.3-2.3-0.3-3.5h-5.3c0.1,2.1,0.7,4,1.6,5.7H141.3z M145.4,149.6c-0.4-0.3-0.8-0.6-1.4-0.6c-0.5,0-1,0.2-1.4,0.6
			c-0.4,0.4-0.6,0.8-0.6,1.4c0,0.5,0.2,1,0.6,1.4c0.4,0.4,0.8,0.6,1.4,0.6c0.5,0,1-0.2,1.4-0.6c0.3-0.3,0.6-0.8,0.6-1.4
			C146,150.4,145.8,149.9,145.4,149.6L145.4,149.6z M157.2,141.7c0.6,0.1,1.2,0.3,1.6,0.8c0.4,0.4,0.7,1,0.8,1.5h3.3
			c-0.1-2.1-0.7-4-1.6-5.7h-4.8C156.8,139.4,157,140.5,157.2,141.7L157.2,141.7z M159.5,145c-0.1,0.5-0.4,1-0.7,1.4h0
			c-0.4,0.4-1,0.7-1.6,0.8c-0.1,1.2-0.4,2.4-0.7,3.6h4.8v0.1c1-1.7,1.6-3.7,1.6-5.8H159.5z M156.3,147.1c-0.5-0.1-1-0.4-1.3-0.7
			c-0.4-0.4-0.6-0.8-0.7-1.4h-3.5v5.7h4.9C155.9,149.5,156.1,148.3,156.3,147.1L156.3,147.1z M154.2,144c0.1-0.6,0.4-1.1,0.8-1.5
			l0,0c0.3-0.3,0.8-0.6,1.3-0.7c-0.2-1.2-0.4-2.4-0.7-3.5h-4.8v5.7H154.2z M158.2,143c-0.4-0.3-0.8-0.6-1.4-0.6s-1,0.2-1.4,0.6
			c-0.4,0.4-0.6,0.8-0.6,1.4c0,0.5,0.2,1,0.6,1.4c0.3,0.4,0.8,0.6,1.4,0.6s1-0.2,1.4-0.6c0.3-0.3,0.6-0.8,0.6-1.4
			C158.8,143.8,158.6,143.4,158.2,143L158.2,143z M144.3,135.2c0.1,0,0.3,0,0.4,0c0.5-1,1-2,1.6-2.9c-2,0.6-3.7,1.7-5.2,3.1
			c-0.6,0.6-1.1,1.2-1.5,1.8h2c0.1-0.5,0.4-1,0.7-1.3l0,0C142.9,135.5,143.6,135.2,144.3,135.2L144.3,135.2z M145.6,135.5
			c0.2,0.1,0.5,0.3,0.7,0.5c0.4,0.4,0.6,0.8,0.7,1.3h2.7v-5.6c-0.7,0-1.3,0.1-1.9,0.2C146.9,133.1,146.2,134.2,145.6,135.5
			L145.6,135.5z M147,138.3c-0.1,0.6-0.4,1.2-0.8,1.6l0,0c-0.5,0.5-1.2,0.8-1.9,0.8c-0.1,0-0.2,0-0.3,0c-0.2,1.1-0.3,2.2-0.3,3.4h6
			v-5.7H147z M143.1,140.4c-0.2-0.1-0.5-0.3-0.7-0.5c-0.4-0.4-0.7-1-0.8-1.6h-2.5c-1,1.7-1.5,3.7-1.6,5.7h5.3
			C142.7,142.8,142.9,141.5,143.1,140.4L143.1,140.4z M145.7,136.6c-0.4-0.4-0.8-0.6-1.4-0.6c-0.5,0-1,0.2-1.4,0.6
			c-0.3,0.3-0.6,0.8-0.6,1.4c0,0.5,0.2,1,0.6,1.4c0.4,0.3,0.8,0.6,1.4,0.6c0.5,0,1-0.2,1.4-0.6c0.4-0.4,0.6-0.8,0.6-1.4
			C146.3,137.4,146.1,136.9,145.7,136.6L145.7,136.6z M150.7,137.3v-5.6c0.5,0,1.1,0.1,1.6,0.2c1.2,1.5,2.2,3.4,3,5.4H150.7z
			 M150.7,151.6h4.5c-0.7,2-1.7,3.9-3,5.4c-0.5,0.1-1,0.1-1.6,0.2V151.6z M160.7,137.3h-4.5c-0.6-1.9-1.5-3.6-2.6-5.1
			c2.1,0.6,4,1.7,5.5,3.3C159.7,136.1,160.2,136.7,160.7,137.3L160.7,137.3z M159.2,153.5c-1.5,1.5-3.4,2.6-5.5,3.2
			c1.1-1.5,1.9-3.2,2.6-5.1h4.5C160.2,152.3,159.7,152.9,159.2,153.5L159.2,153.5z"/>
	</g>
</g>
</svg>
