<?xml version="1.0" encoding="utf-8"?>
<!-- Generator: Adobe Illustrator 21.1.0, SVG Export Plug-In . SVG Version: 6.00 Build 0)  -->
<svg version="1.1" id="_x32_" xmlns="http://www.w3.org/2000/svg" xmlns:xlink="http://www.w3.org/1999/xlink" x="0px" y="0px"
	 viewBox="0 0 300 300" style="enable-background:new 0 0 300 300;" xml:space="preserve">
<style type="text/css">
	.st0{fill:#FFFFFF;stroke:#000000;stroke-miterlimit:10;}
	.st1{fill-rule:evenodd;clip-rule:evenodd;fill:#908FB2;}
</style>
<g>
	<ellipse class="st0" cx="160.5" cy="136.3" rx="23.5" ry="24"/>
	<g>
		<path class="st1" d="M160.8,122.5c-4.9,0-8.8,3.9-8.8,8.8c0,4.9,8.3,18.1,8.3,18.1c0.3,0.5,0.8,0.5,1.1,0c0,0,8.2-13.3,8.2-18.1
			C169.7,126.4,165.7,122.5,160.8,122.5L160.8,122.5z M160.8,127c1.7,0,3.1,1.4,3.1,3.1c0,1.7-1.4,3.1-3.1,3.1
			c-1.7,0-3.1-1.4-3.1-3.1C157.7,128.4,159.1,127,160.8,127L160.8,127z"/>
	</g>
</g>
</svg>
